<svg width="42" height="42" viewBox="0 0 42 42" fill="none" xmlns="http://www.w3.org/2000/svg">
<rect width="42" height="42" rx="12" fill="url(#paint0_linear_0_558)"/>
<path d="M21 21C19.9 21 18.9583 20.6083 18.175 19.825C17.3917 19.0417 17 18.1 17 17C17 15.9 17.3917 14.9583 18.175 14.175C18.9583 13.3917 19.9 13 21 13C22.1 13 23.0417 13.3917 23.825 14.175C24.6083 14.9583 25 15.9 25 17C25 18.1 24.6083 19.0417 23.825 19.825C23.0417 20.6083 22.1 21 21 21ZM15 29C14.45 29 13.9793 28.8043 13.588 28.413C13.196 28.021 13 27.55 13 27V26.2C13 25.6333 13.146 25.1123 13.438 24.637C13.7293 24.1623 14.1167 23.8 14.6 23.55C15.6333 23.0333 16.6833 22.6457 17.75 22.387C18.8167 22.129 19.9 22 21 22C22.1 22 23.1833 22.129 24.25 22.387C25.3167 22.6457 26.3667 23.0333 27.4 23.55C27.8833 23.8 28.2707 24.1623 28.562 24.637C28.854 25.1123 29 25.6333 29 26.2V27C29 27.55 28.8043 28.021 28.413 28.413C28.021 28.8043 27.55 29 27 29H15Z" fill="white"/>
<defs>
<linearGradient id="paint0_linear_0_558" x1="0" y1="21" x2="42" y2="21" gradientUnits="userSpaceOnUse">
<stop stop-color="#4568DC"/>
<stop offset="1" stop-color="#B06AB3"/>
</linearGradient>
</defs>
</svg>
